<?xml version="1.0" encoding="utf-8"?>
<!-- Generator: Adobe Illustrator 16.0.0, SVG Export Plug-In . SVG Version: 6.00 Build 0)  -->
<!DOCTYPE svg PUBLIC "-//W3C//DTD SVG 1.1//EN" "http://www.w3.org/Graphics/SVG/1.1/DTD/svg11.dtd">
<svg version="1.1" id="Layer_1" xmlns="http://www.w3.org/2000/svg" xmlns:xlink="http://www.w3.org/1999/xlink" x="0px" y="0px"
	 width="674.418px" height="200px" viewBox="0 0 674.418 200" enable-background="new 0 0 674.418 200" xml:space="preserve">
<g>
	<g>
		<g>
			<path fill="#FFFFFF" d="M239.287,70.825v19.469h-52.842c0.485,5.976,2.428,10.213,5.811,12.713
				c3.378,2.5,8.845,3.745,16.404,3.745h30.627v19.474h-33.367c-7.253,0-13.144-0.644-17.695-1.915
				c-4.535-1.288-8.843-3.478-12.929-6.591c-11.038-8.526-16.551-21.263-16.551-38.207c0-11.097,2.924-20.723,8.779-28.888
				c4.022-5.608,8.837-9.602,14.441-11.981c5.611-2.371,12.983-3.561,22.123-3.561h35.198v19.472h-33.367
				c-6.828,0-11.625,1.16-14.395,3.47c-2.784,2.32-4.463,6.586-5.08,12.8H239.287z"/>
			<path fill="#FFFFFF" d="M281.677,35.083h48.358c7.201,0,12.708,0.516,16.546,1.552c3.835,1.035,7.291,2.958,10.331,5.759
				c6.397,5.792,9.601,15.024,9.601,27.701v56.13h-25.049V67.262c0-4.514-1.004-7.755-3.012-9.733
				c-2.016-1.991-5.305-2.974-9.877-2.974h-21.842v71.67h-25.056V35.083z"/>
			<path fill="#FFFFFF" d="M481.021,35.083v19.472h-30.074c-9.998,0-16.975,2.256-20.939,6.763
				c-3.713,4.269-5.572,10.728-5.572,19.381c0,9.814,3.047,16.912,9.137,21.302c2.503,1.829,5.21,3.074,8.143,3.748
				c2.92,0.67,7.015,1.003,12.246,1.003h27.061v19.474h-34.292c-9.194,0-16.479-0.927-21.839-2.789
				c-5.361-1.861-10.144-5.135-14.354-9.826c-7.795-8.72-11.701-19.782-11.701-33.184c0-16.218,4.696-28.34,14.084-36.386
				c3.714-3.229,8.192-5.524,13.433-6.907c5.24-1.364,12.037-2.05,20.378-2.05H481.021z"/>
			<path fill="#FFFFFF" d="M672.356,35.083H554.063v0.32c-15.472,0.372-27.379,5.147-35.669,14.397
				c-7.626,8.472-11.433,19.103-11.433,31.905c0,14.984,3.962,26.482,11.89,34.459c8.643,8.718,20.593,13.08,35.828,13.08
				c14.749,0,26.36-3.903,34.836-11.71c9.256-8.468,13.889-19.832,13.889-34.093c0-11.217-2.61-20.831-7.774-28.888h76.727V35.083z
				 M577.719,82.161c0,18.587-7.43,27.88-22.308,27.88c-8.647,0-15.017-3.346-19.1-10.049c-2.439-3.962-3.657-9.755-3.657-17.377
				c0-18.704,7.519-28.059,22.576-28.059C570.217,54.736,577.719,63.938,577.719,82.161z"/>
			<path fill="#FFFFFF" d="M127.114,54.555V35.083h-23.22V1.445H78.843v33.639H2.06v19.472h76.783v37.476
				c0,12.319,2.296,21.092,6.904,26.335c4.599,5.237,12.32,7.859,23.17,7.859h18.197v-19.474h-9.875
				c-5.363,0-9.118-1.493-11.245-4.482c-1.41-2.009-2.101-6.885-2.101-14.625V54.555H127.114z"/>
		</g>
		<defs>
			<filter id="Adobe_OpacityMaskFilter" filterUnits="userSpaceOnUse" x="2.06" y="125.747" width="670.297" height="72.807">
				
					<feColorMatrix  type="matrix" values="-1 0 0 0 1  0 -1 0 0 1  0 0 -1 0 1  0 0 0 1 0" color-interpolation-filters="sRGB" result="source"/>
			</filter>
		</defs>
		<mask maskUnits="userSpaceOnUse" x="2.06" y="125.747" width="670.297" height="72.807" id="SVGID_1_">
			<g filter="url(#Adobe_OpacityMaskFilter)">
				<g>
					<linearGradient id="SVGID_2_" gradientUnits="userSpaceOnUse" x1="199.0161" y1="179.3906" x2="199.0161" y2="127.4678">
						<stop  offset="0.27" style="stop-color:#FFFFFF"/>
						<stop  offset="0.3885" style="stop-color:#FCFCFC"/>
						<stop  offset="0.4838" style="stop-color:#F2F2F2"/>
						<stop  offset="0.5709" style="stop-color:#E1E1E1"/>
						<stop  offset="0.6532" style="stop-color:#C9C9C9"/>
						<stop  offset="0.7322" style="stop-color:#AAAAAA"/>
						<stop  offset="0.8087" style="stop-color:#848484"/>
						<stop  offset="0.8831" style="stop-color:#585858"/>
						<stop  offset="0.9541" style="stop-color:#252525"/>
						<stop  offset="1" style="stop-color:#000000"/>
					</linearGradient>
					<path fill="url(#SVGID_2_)" d="M186.444,159.028c0.617,3.539,2.296,5.972,5.08,7.293c2.771,1.315,7.567,1.976,14.395,1.976
						h33.367v11.094h-35.198c-9.139,0-16.511-0.679-22.123-2.026c-5.604-1.356-10.419-3.631-14.441-6.827
						c-5.855-4.65-8.779-10.135-8.779-16.457c0-9.652,5.513-16.909,16.551-21.768c4.086-1.773,8.394-3.021,12.929-3.754
						c4.551-0.725,10.441-1.091,17.695-1.091h33.367v11.093h-30.627c-7.559,0-13.025,0.71-16.404,2.135
						c-3.383,1.425-5.326,3.84-5.811,7.242h52.842v11.091H186.444z"/>
					<linearGradient id="SVGID_3_" gradientUnits="userSpaceOnUse" x1="324.0952" y1="179.3906" x2="324.0952" y2="127.4678">
						<stop  offset="0.27" style="stop-color:#FFFFFF"/>
						<stop  offset="0.3885" style="stop-color:#FCFCFC"/>
						<stop  offset="0.4838" style="stop-color:#F2F2F2"/>
						<stop  offset="0.5709" style="stop-color:#E1E1E1"/>
						<stop  offset="0.6532" style="stop-color:#C9C9C9"/>
						<stop  offset="0.7322" style="stop-color:#AAAAAA"/>
						<stop  offset="0.8087" style="stop-color:#848484"/>
						<stop  offset="0.8831" style="stop-color:#585858"/>
						<stop  offset="0.9541" style="stop-color:#252525"/>
						<stop  offset="1" style="stop-color:#000000"/>
					</linearGradient>
					<path fill="url(#SVGID_3_)" d="M281.677,127.468h25.056v40.829h21.842c4.573,0,7.861-0.56,9.877-1.694
						c2.008-1.124,3.012-2.973,3.012-5.544v-33.591h25.049v31.978c0,7.223-3.203,12.48-9.601,15.78
						c-3.04,1.597-6.496,2.692-10.331,3.28c-3.838,0.593-9.346,0.885-16.546,0.885h-48.358V127.468z"/>
					<linearGradient id="SVGID_4_" gradientUnits="userSpaceOnUse" x1="439.9277" y1="179.3906" x2="439.9277" y2="127.4678">
						<stop  offset="0.27" style="stop-color:#FFFFFF"/>
						<stop  offset="0.3885" style="stop-color:#FCFCFC"/>
						<stop  offset="0.4838" style="stop-color:#F2F2F2"/>
						<stop  offset="0.5709" style="stop-color:#E1E1E1"/>
						<stop  offset="0.6532" style="stop-color:#C9C9C9"/>
						<stop  offset="0.7322" style="stop-color:#AAAAAA"/>
						<stop  offset="0.8087" style="stop-color:#848484"/>
						<stop  offset="0.8831" style="stop-color:#585858"/>
						<stop  offset="0.9541" style="stop-color:#252525"/>
						<stop  offset="1" style="stop-color:#000000"/>
					</linearGradient>
					<path fill="url(#SVGID_4_)" d="M446.729,179.391c-8.341,0-15.138-0.389-20.378-1.168c-5.24-0.788-9.719-2.095-13.433-3.934
						c-9.388-4.584-14.084-11.488-14.084-20.729c0-7.637,3.906-13.939,11.701-18.907c4.211-2.672,8.993-4.538,14.354-5.599
						c5.36-1.058,12.645-1.587,21.839-1.587h34.292v11.093h-27.061c-5.231,0-9.326,0.191-12.246,0.574
						c-2.933,0.381-5.64,1.093-8.143,2.133c-6.09,2.501-9.137,6.545-9.137,12.137c0,4.931,1.859,8.609,5.572,11.043
						c3.965,2.566,10.941,3.85,20.939,3.85h30.074v11.094H446.729z"/>
					<linearGradient id="SVGID_5_" gradientUnits="userSpaceOnUse" x1="589.6592" y1="179.3906" x2="589.6592" y2="125.7471">
						<stop  offset="0.27" style="stop-color:#FFFFFF"/>
						<stop  offset="0.3885" style="stop-color:#FCFCFC"/>
						<stop  offset="0.4838" style="stop-color:#F2F2F2"/>
						<stop  offset="0.5709" style="stop-color:#E1E1E1"/>
						<stop  offset="0.6532" style="stop-color:#C9C9C9"/>
						<stop  offset="0.7322" style="stop-color:#AAAAAA"/>
						<stop  offset="0.8087" style="stop-color:#848484"/>
						<stop  offset="0.8831" style="stop-color:#585858"/>
						<stop  offset="0.9541" style="stop-color:#252525"/>
						<stop  offset="1" style="stop-color:#000000"/>
					</linearGradient>
					<path fill="url(#SVGID_5_)" d="M672.356,168.297H595.63c5.164-4.588,7.774-10.065,7.774-16.456
						c0-8.125-4.633-14.6-13.889-19.425c-8.476-4.446-20.087-6.669-34.836-6.669c-15.235,0-27.186,2.484-35.828,7.45
						c-7.928,4.547-11.89,11.096-11.89,19.634c0,7.293,3.807,13.351,11.433,18.175c8.29,5.27,20.197,7.992,35.669,8.203v0.182
						h118.293V168.297z M555.23,168.297c-15.058,0-22.576-5.328-22.576-15.984c0-4.342,1.218-7.642,3.657-9.898
						c4.083-3.82,10.452-5.726,19.1-5.726c14.878,0,22.308,5.293,22.308,15.884C577.719,162.954,570.217,168.194,555.23,168.297z"/>
					<linearGradient id="SVGID_6_" gradientUnits="userSpaceOnUse" x1="64.5869" y1="198.5537" x2="64.5869" y2="127.4678">
						<stop  offset="0.27" style="stop-color:#FFFFFF"/>
						<stop  offset="0.3885" style="stop-color:#FCFCFC"/>
						<stop  offset="0.4838" style="stop-color:#F2F2F2"/>
						<stop  offset="0.5709" style="stop-color:#E1E1E1"/>
						<stop  offset="0.6532" style="stop-color:#C9C9C9"/>
						<stop  offset="0.7322" style="stop-color:#AAAAAA"/>
						<stop  offset="0.8087" style="stop-color:#848484"/>
						<stop  offset="0.8831" style="stop-color:#585858"/>
						<stop  offset="0.9541" style="stop-color:#252525"/>
						<stop  offset="1" style="stop-color:#000000"/>
					</linearGradient>
					<path fill="url(#SVGID_6_)" d="M127.114,168.297v11.094h-23.22v19.163H78.843v-19.163H2.06v-11.094h76.783v-21.35
						c0-7.016,2.296-12.016,6.904-15.003c4.599-2.981,12.32-4.477,23.17-4.477h18.197v11.093h-9.875
						c-5.363,0-9.118,0.854-11.245,2.554c-1.41,1.146-2.101,3.925-2.101,8.334v18.849H127.114z"/>
				</g>
			</g>
		</mask>
		<g opacity="0.5" mask="url(#SVGID_1_)">
			<path fill="#DEDEDE" d="M186.444,159.028c0.617,3.539,2.296,5.972,5.08,7.293c2.771,1.315,7.567,1.976,14.395,1.976h33.367
				v11.094h-35.198c-9.139,0-16.511-0.679-22.123-2.026c-5.604-1.356-10.419-3.631-14.441-6.827
				c-5.855-4.65-8.779-10.135-8.779-16.457c0-9.652,5.513-16.909,16.551-21.768c4.086-1.773,8.394-3.021,12.929-3.754
				c4.551-0.725,10.441-1.091,17.695-1.091h33.367v11.093h-30.627c-7.559,0-13.025,0.71-16.404,2.135
				c-3.383,1.425-5.326,3.84-5.811,7.242h52.842v11.091H186.444z"/>
			<path fill="#DEDEDE" d="M281.677,127.468h25.056v40.829h21.842c4.573,0,7.861-0.56,9.877-1.694
				c2.008-1.124,3.012-2.973,3.012-5.544v-33.591h25.049v31.978c0,7.223-3.203,12.48-9.601,15.78
				c-3.04,1.597-6.496,2.692-10.331,3.28c-3.838,0.593-9.346,0.885-16.546,0.885h-48.358V127.468z"/>
			<path fill="#DEDEDE" d="M446.729,179.391c-8.341,0-15.138-0.389-20.378-1.168c-5.24-0.788-9.719-2.095-13.433-3.934
				c-9.388-4.584-14.084-11.488-14.084-20.729c0-7.637,3.906-13.939,11.701-18.907c4.211-2.672,8.993-4.538,14.354-5.599
				c5.36-1.058,12.645-1.587,21.839-1.587h34.292v11.093h-27.061c-5.231,0-9.326,0.191-12.246,0.574
				c-2.933,0.381-5.64,1.093-8.143,2.133c-6.09,2.501-9.137,6.545-9.137,12.137c0,4.931,1.859,8.609,5.572,11.043
				c3.965,2.566,10.941,3.85,20.939,3.85h30.074v11.094H446.729z"/>
			<path fill="#DEDEDE" d="M672.356,168.297H595.63c5.164-4.588,7.774-10.065,7.774-16.456c0-8.125-4.633-14.6-13.889-19.425
				c-8.476-4.446-20.087-6.669-34.836-6.669c-15.235,0-27.186,2.484-35.828,7.45c-7.928,4.547-11.89,11.096-11.89,19.634
				c0,7.293,3.807,13.351,11.433,18.175c8.29,5.27,20.197,7.992,35.669,8.203v0.182h118.293V168.297z M555.23,168.297
				c-15.058,0-22.576-5.328-22.576-15.984c0-4.342,1.218-7.642,3.657-9.898c4.083-3.82,10.452-5.726,19.1-5.726
				c14.878,0,22.308,5.293,22.308,15.884C577.719,162.954,570.217,168.194,555.23,168.297z"/>
			<path fill="#DEDEDE" d="M127.114,168.297v11.094h-23.22v19.163H78.843v-19.163H2.06v-11.094h76.783v-21.35
				c0-7.016,2.296-12.016,6.904-15.003c4.599-2.981,12.32-4.477,23.17-4.477h18.197v11.093h-9.875
				c-5.363,0-9.118,0.854-11.245,2.554c-1.41,1.146-2.101,3.925-2.101,8.334v18.849H127.114z"/>
		</g>
	</g>
</g>
</svg>
